<?xml version="1.0" ?>
<!-- Uploaded to: SVG Repo, www.svgrepo.com, Generator: SVG Repo Mixer Tools -->
<svg width="800px" height="800px" viewBox="0 0 32 32" xmlns="http://www.w3.org/2000/svg">
<defs>
<style>.cls-1{fill:#ff64c8;}.cls-2{fill:#5233ff;}</style>
</defs>
<title/>
<g data-name="Layer 2" id="Layer_2">
<path class="cls-1" d="M15,5H7A1,1,0,0,1,7,3h8a1,1,0,0,1,0,2Z"/>
<path class="cls-1" d="M10,9H5A1,1,0,0,1,5,7h5a1,1,0,0,1,0,2Z"/>
<path class="cls-1" d="M5,13H3a1,1,0,0,1,0-2H5a1,1,0,0,1,0,2Z"/>
<path class="cls-2" d="M29.79,11.47a1.45,1.45,0,0,0-.62,0A1.47,1.47,0,0,0,28,12.53l-1.16,4.35a1,1,0,0,1-1,.74.84.84,0,0,1-.27,0,1,1,0,0,1-.71-1.22L26.8,9.11a1.54,1.54,0,0,0-1.12-1.85,1.52,1.52,0,0,0-1.79,1.1L22,15.58a1,1,0,0,1-1,.74,1.15,1.15,0,0,1-.26,0A1,1,0,0,1,20,15.07l2.46-9.18a1.48,1.48,0,0,0-.84-1.76l-.22-.08a1.49,1.49,0,0,0-1.83,1.06l-2.46,9.18a1,1,0,0,1-1,.74,1.15,1.15,0,0,1-.26,0,1,1,0,0,1-.71-1.23l1.17-4.35a1.47,1.47,0,0,0-.51-1.54,1.43,1.43,0,0,0-.78-.34,1.54,1.54,0,0,0-1.62,1.15l-2,7.48L13.11,19a1,1,0,0,1-1.66,1l-2.9-5h0a1.47,1.47,0,0,0-1.26-.69h0l-.21,0H7a1.47,1.47,0,0,0-1,2.21l2.5,4.33,0,.06,1.82,3.15a7.45,7.45,0,0,0,5.3,5.35l1.48.38a9,9,0,0,0,11-6.35l1.69-6.25,1-3.89A1.5,1.5,0,0,0,29.79,11.47Z"/>
</g>
</svg>